<svg width="21" height="24" viewBox="0 0 21 24" fill="none" xmlns="http://www.w3.org/2000/svg">
<path d="M10.712 0C8.17723 0 6.09662 2.08062 6.09662 4.61538V5.53846H1.53846L1.48123 6.40431L0.558154 23.0197L0.5 24H20.9231L20.8658 23.0188L19.9428 6.40338L19.8846 5.53846H15.3274V4.61538C15.3274 2.08062 13.2468 0 10.712 0ZM10.712 1.84615C11.4464 1.84615 12.1508 2.13791 12.6701 2.65724C13.1895 3.17657 13.4812 3.88094 13.4812 4.61538V5.53846H7.94277V4.61538C7.94277 3.88094 8.23453 3.17657 8.75386 2.65724C9.27319 2.13791 9.97755 1.84615 10.712 1.84615ZM3.26923 7.38462H6.09662V10.1538H7.94277V7.38462H13.4812V10.1538H15.3274V7.38462H18.1548L18.9625 22.1538H2.46246L3.26923 7.38462Z" fill="white"/>
</svg>
